<svg width="48" height="48" viewBox="0 0 48 48" fill="none" xmlns="http://www.w3.org/2000/svg">
<rect width="48" height="48" fill="white"/>
<path d="M24 43.8591C37.2548 43.8591 48 34.0409 48 21.9295C48 9.81818 37.2548 0 24 0C10.7452 0 0 9.81818 0 21.9295C0 34.0409 10.7452 43.8591 24 43.8591Z" fill="#3CC4B8"/>
<path d="M26.5787 48L29.1374 39.5006C29.1374 39.5006 36.0434 33.5199 35.6407 28.7364C35.6273 28.5781 35.6407 28.5659 35.6407 28.5659L35.5521 27.3652C35.5463 27.2872 35.5152 27.2126 35.4628 27.1509C35.4103 27.0892 35.3389 27.0432 35.2577 27.0188C35.1764 26.9944 35.0891 26.9927 35.0068 27.014C34.9245 27.0352 34.851 27.0785 34.7958 27.1381L33.4285 28.6146L32.9362 29.2199C32.9362 29.2199 31.7227 30.5629 29.4839 29.954L28.7642 29.8566C28.7642 29.8566 26.9652 30.6481 24.5398 29.3817C24.5398 29.3817 25.3926 30.3072 23.3137 28.4076C21.2348 26.508 18.4362 23.5369 18.4362 23.5369C18.0017 23.1121 18.3061 21.9265 18.9414 21.8912C20.3831 21.811 22.0266 21.4584 22.4888 20.9867C22.665 20.8058 22.798 20.5932 22.8792 20.3626C22.9682 20.1127 22.9951 19.8479 22.9578 19.5873C22.9204 19.3267 22.8199 19.0771 22.6635 18.8565C22.507 18.636 22.2987 18.4502 22.0536 18.3127C21.8085 18.1752 21.5329 18.0894 21.2469 18.0616C19.5712 17.9008 16.8455 17.7765 16.066 18.0501C15.9922 18.0764 15.9198 18.106 15.8493 18.1389C15.3747 18.3624 14.9707 18.6932 14.6757 19.0998C14.3808 19.5063 14.2047 19.9752 14.1644 20.4616C13.9452 22.9093 13.6573 28.2756 14.9796 31.1351L16.6239 34.6908L11.5332 47.8904L26.5787 48Z" fill="#2F2E41"/>
<path d="M33.8936 27.9951C33.8936 27.9951 31.7617 28.5311 31.6977 26.6313C31.6977 26.6313 31.5482 17.7146 24.252 20.9213C16.9558 24.1281 20.5612 28.694 20.5612 28.694C20.5612 28.694 21.5632 28.7146 21.3667 29.4051C21.1701 30.0956 20.8609 30.9459 20.8609 30.9459C20.8609 30.9459 20.8385 31.7326 21.8589 31.4527C21.8589 31.4527 22.1602 31.5746 21.7423 32.0985C21.7423 32.0985 21.9268 32.8664 22.4534 32.6688C22.4534 32.6688 22.0867 32.7771 22.2752 33.0588C22.4638 33.3405 22.5254 33.5964 22.845 33.4178C23.1646 33.2392 23.4331 33.4762 23.4331 33.4762C23.4331 33.4762 23.4826 35.1905 25.3205 34.1634C27.1583 33.1362 26.9881 32.5539 27.8775 32.7343C27.9641 32.7515 28.0517 32.7645 28.1399 32.7731C28.687 32.8241 29.2391 32.7427 29.741 32.5371C30.2428 32.3315 30.6766 32.009 30.999 31.6019L33.8936 27.9951Z" fill="#3CC4B8"/>
<path d="M33.4211 23.4783C33.3555 23.4783 33.2899 23.4814 33.2247 23.4875C32.94 23.5136 32.6656 23.5985 32.4222 23.7358C32.1788 23.8732 31.9728 24.0593 31.8198 24.2802L29.7219 27.2925C29.5795 27.4968 29.4963 27.7309 29.4802 27.9726C29.4641 28.2144 29.5156 28.4559 29.6299 28.6745C29.7442 28.893 29.9175 29.0814 30.1335 29.2218C30.3494 29.3623 30.601 29.4502 30.8644 29.4773L30.9055 29.4814C31.1513 29.5042 31.3994 29.4733 31.6296 29.3912C31.8597 29.3091 32.0652 29.1783 32.2291 29.0094L34.8186 26.3475C35.1338 26.0287 35.3062 25.6131 35.3014 25.1834C35.2967 24.7538 35.1152 24.3415 34.793 24.0285C34.7804 24.0163 34.7679 24.0044 34.7553 23.9926C34.5821 23.8295 34.3746 23.6999 34.1454 23.6115C33.9162 23.5232 33.6699 23.4778 33.4211 23.4783V23.4783Z" fill="#2F2E41"/>
<path d="M30.3363 20.2861C30.0048 20.2861 29.6787 20.3628 29.3884 20.509C29.0981 20.6553 28.8531 20.8662 28.6761 21.1223L25.5826 25.6076C25.4162 25.8463 25.3148 26.1179 25.287 26.3998C25.2591 26.6816 25.3057 26.9655 25.4227 27.2275C25.5351 27.488 25.7143 27.72 25.9451 27.9042C26.176 28.0884 26.4518 28.2193 26.7494 28.286C26.7701 28.2906 26.791 28.2952 26.8123 28.2997C27.1824 28.3757 27.5687 28.351 27.9236 28.2285C28.2784 28.1061 28.5862 27.8913 28.8089 27.6107C29.709 26.4847 31.3404 24.3978 32.1539 23.0716C32.3445 22.7671 32.4312 22.4175 32.4027 22.0676C32.3743 21.7178 32.2321 21.3837 31.9943 21.1083V21.1083C31.8984 20.9977 31.7954 20.8924 31.6859 20.793C31.3271 20.4675 30.8418 20.2852 30.3363 20.2861V20.2861Z" fill="#2F2E41"/>
<path d="M26.4715 17.7398C26.023 17.7432 25.5875 17.8777 25.2288 18.1236C24.87 18.3696 24.6068 18.714 24.4778 19.1065C23.8811 20.9248 22.6263 22.8474 21.9313 23.8315C21.8161 23.9954 21.7384 24.1789 21.7028 24.371C21.6673 24.563 21.6748 24.7597 21.7247 24.9491C21.7715 25.1307 21.8587 25.3017 21.9807 25.4513C22.1028 25.6009 22.2573 25.726 22.4345 25.8188C22.4592 25.8318 22.4841 25.8443 22.5093 25.8562C23.4527 26.3043 24.6371 25.9894 25.2059 25.1393L28.2208 20.6329C28.3935 20.377 28.4975 20.0875 28.5242 19.7879C28.551 19.4883 28.4998 19.1872 28.3748 18.9091C28.258 18.6394 28.073 18.3988 27.835 18.2069C27.597 18.015 27.3126 17.8773 27.0052 17.805C26.9646 17.7955 26.924 17.7868 26.8833 17.7789C26.7479 17.7529 26.6099 17.7398 26.4715 17.7398Z" fill="#2F2E41"/>
<path d="M19.6645 17.2212C19.9393 17.2458 20.2495 17.2631 20.5766 17.2813C21.7411 17.3461 23.0501 17.419 23.4355 17.8708L23.5117 17.6911C23.6141 17.421 23.6451 17.1326 23.6023 16.8495C23.5594 16.5664 23.4439 16.2965 23.2652 16.062C23.0959 15.8332 22.8697 15.6444 22.6052 15.5108C22.3406 15.3773 22.0453 15.3028 21.7432 15.2936C21.7034 15.2923 21.6636 15.2919 21.6241 15.2923C20.6132 15.302 19.7626 16.043 19.6875 16.9791C19.6812 17.0572 19.6737 17.1369 19.6645 17.2212Z" fill="#2F2E41"/>
<path d="M22.0325 22.2489C22.0101 22.2491 21.9883 22.2551 21.9695 22.2661V22.2661C21.078 22.7703 19.6167 22.878 18.825 22.8973C18.7917 22.8981 18.7592 22.9075 18.7315 22.9245C18.7038 22.9416 18.682 22.9655 18.6687 22.9934C18.655 23.0202 18.6502 23.0501 18.6547 23.0794C18.6593 23.1086 18.6731 23.1361 18.6943 23.1584C19.0389 23.5257 19.8445 23.9597 20.5963 24.0501C21.2235 24.1244 21.8331 23.0493 22.1406 22.4011C22.1512 22.3801 22.154 22.3564 22.1484 22.3337C22.1428 22.3111 22.1292 22.2908 22.1097 22.2759C22.0883 22.2588 22.061 22.2492 22.0325 22.2489V22.2489Z" fill="#2F2E41"/>
</svg>
